Star Trek IV: The Voyage Home (1986) 1080p      

 
Verenigde Staten
Science-Fiction / Komedie
119 minuten / 136 minuten (director's cut)

geregisseerd door Leonard Nimoy
met William Shatner, Leonard Nimoy en DeForest Kelley

In de ruimte worden signalen opgevangen van walvissen die op aarde allang uitgestorven zijn. Door de signalen die ze uitzenden, treden er storingen op in ruimtestations. Eén van de leden van de Enterprise komt op het idee om terug in de tijd te reizen en dan twee walvissen te vangen. Deze walvissen moeten reageren op de signalen anders zal de defensie van de Starfleet machteloos zijn. Captain T. Kirk, dr. Spock en nog een paar andere leden van de Enterprise krijgen een niet zo'n gemakkelijke missie, want het schijnt dat er niet zoveel walvissen meer op aarde zijn.

English


Storyline
To save Earth from a destructive space probe, Kirk and his fugitive crew go back in time to 20th century Earth to recover two humpback whales, who are the only Earth beings who can respond to it.




Categorie : Beeld 
Formaat : x264HD 
Bron : Retail
 
Ondertitels : Nederlands (instelbaar)

Format                           : Matroska
File size                        : 7.49 GiB
Duration                         : 1h 58mn
Overall bit rate                 : 9 027 Kbps
Movie name                       : Star Trek IV: The Voyage Home
Encoded date                     : UTC 2010-08-01 01:04:14
Writing application              : mkvmerge v4.1.1 ('Bouncin' Back') gemaakt op Jul  3 2010 22:54:08
Writing library                  : libebml v1.0.0 + libmatroska v1.0.0

Video
ID                               : 1
Format                           : AVC
Format/Info                      : Advanced Video Codec
Format profile                   : High@L4.1
Format settings, CABAC           : Yes
Format settings, ReFrames        : 3 frames
Format settings, GOP             : M=1, N=32
Muxing mode                      : Container profile=Unknown@0.0
Codec ID                         : V_MPEG4/ISO/AVC
Duration                         : 1h 58mn
Bit rate mode                    : Variable
Bit rate                         : 8 396 Kbps
Maximum bit rate                 : 24.0 Mbps
Width                            : 1 920 pixels
Height                           : 1 080 pixels
Display aspect ratio             : 16:9
Frame rate                       : 23.976 fps
Color space                      : YUV
Chroma subsampling               : 4:2:0
Bit depth                        : 8 bits
Scan type                        : Progressive
Bits/(Pixel*Frame)               : 0.169
Stream size                      : 6.81 GiB (91%)
Writing library                  : x264 core 104 r1683 62997d6
Encoding settings                : cabac=1 / ref=4 / deblock=1:-1:-1 / analyse=0x3:0x133 / me=umh / subme=10 / psy=1 / psy_rd=1.00:0.15 / mixed_ref=1 / me_range=24 / chroma_me=1 / trellis=2 / 8x8dct=1 / cqm=0 / deadzone=21,11 / fast_pskip=1 / chroma_qp_offset=-3 / threads=12 / sliced_threads=0 / slices=4 / nr=0 / decimate=1 / interlaced=0 / constrained_intra=0 / bframes=3 / b_pyramid=1 / b_adapt=2 / b_bias=0 / direct=3 / weightb=1 / open_gop=2 / weightp=2 / keyint=24 / keyint_min=2 / scenecut=40 / intra_refresh=0 / rc_lookahead=24 / rc=2pass / mbtree=1 / bitrate=8396 / ratetol=1.0 / qcomp=0.60 / qpmin=10 / qpmax=51 / qpstep=4 / cplxblur=20.0 / qblur=0.5 / vbv_maxrate=24000 / vbv_bufsize=24000 / ip_ratio=1.40 / aq=1:1.00 / nal_hrd=vbr
Color primaries                  : BT.709-5, BT.1361, IEC 61966-2-4, SMPTE RP177
Transfer characteristics         : BT.709-5, BT.1361
Matrix coefficients              : BT.709-5, BT.1361, IEC 61966-2-4 709, SMPTE RP177

Audio
ID                               : 2
Format                           : AC-3
Format/Info                      : Audio Coding 3
Mode extension                   : CM (complete main)
Muxing mode                      : Header stripping
Codec ID                         : A_AC3
Duration                         : 1h 58mn
Bit rate mode                    : Constant
Bit rate                         : 640 Kbps
Channel(s)                       : 6 channels
Channel positions                : Front: L C R, Side: L R, LFE
Sampling rate                    : 48.0 KHz
Bit depth                        : 16 bits
Stream size                      : 544 MiB (7%)
Language                         : English

Text
ID                               : 3
Format                           : UTF-8
Codec ID                         : S_TEXT/UTF8
Codec ID/Info                    : UTF-8 Plain Text
Language                         : Dutch

Menu
00:00:00.000                     : en:00:00:00.000
00:03:08.939                     : en:00:03:08.939
00:07:02.172                     : en:00:07:02.172
00:13:36.024                     : en:00:13:36.024
00:16:43.169                     : en:00:16:43.169
00:27:29.940                     : en:00:27:29.940
00:36:06.748                     : en:00:36:06.748
00:45:25.389                     : en:00:45:25.389
00:51:33.424                     : en:00:51:33.424
00:58:01.770                     : en:00:58:01.770
01:02:57.649                     : en:01:02:57.649
01:12:17.667                     : en:01:12:17.667
01:17:38.654                     : en:01:17:38.654
01:22:44.543                     : en:01:22:44.543
01:28:29.304                     : en:01:28:29.304
01:37:17.081                     : en:01:37:17.081
01:48:14.279                     : en:01:48:14.279
01:55:00.727                     : en:01:55:00.727


 
Genre : Science Fiction
 
Weblink :  http://www.moviemeter.nl/film/1051
Weblink :  http://www.imdb.com/title/tt0092007 
      
***************************************** 

Brought to you by 
Pioen